<?xml version="1.0" encoding="utf-8"?>
<!-- Generator: Adobe Illustrator 27.5.0, SVG Export Plug-In . SVG Version: 6.00 Build 0)  -->
<svg version="1.1" xmlns="http://www.w3.org/2000/svg" xmlns:xlink="http://www.w3.org/1999/xlink" x="0px" y="0px"
	 viewBox="0 0 1200 800" style="enable-background:new 0 0 1200 800;" xml:space="preserve">
<g id="Background">
	<linearGradient id="SVGID_1_" gradientUnits="userSpaceOnUse" x1="513.306" y1="890.6898" x2="686.694" y2="-90.6898">
		<stop  offset="3.197300e-04" style="stop-color:#F5F5F5"/>
		<stop  offset="0.9385" style="stop-color:#E8F5FF"/>
	</linearGradient>
	<rect style="fill:url(#SVGID_1_);" width="1200" height="800"/>
</g>
<g id="Graphic_Elements">
	<g>
		<defs>
			<rect id="SVGID_00000014595093380548158580000003462773763608391075_" width="1200" height="800"/>
		</defs>
		<clipPath id="SVGID_00000036234252703876719980000001867570053642698666_">
			<use xlink:href="#SVGID_00000014595093380548158580000003462773763608391075_"  style="overflow:visible;"/>
		</clipPath>
		<g style="clip-path:url(#SVGID_00000036234252703876719980000001867570053642698666_);">
			<g>
				<g>
					<g>
						
							<linearGradient id="SVGID_00000171688960726739460480000009414242943588715139_" gradientUnits="userSpaceOnUse" x1="-12.6289" y1="699.1983" x2="1190.5938" y2="699.1983">
							<stop  offset="0.0614" style="stop-color:#ABE1FF"/>
							<stop  offset="1" style="stop-color:#D7EDFD;stop-opacity:0"/>
						</linearGradient>
						<path style="fill:url(#SVGID_00000171688960726739460480000009414242943588715139_);" d="M1189.877,754.228
							c-0.22-0.226-22.467-22.853-66.854-47.268c-40.967-22.533-109.708-51.239-204.547-60.03
							c-104.273-9.668-184.306,22.185-261.704,52.987c-58.312,23.207-118.609,47.204-187.742,52.143
							c-116.727,8.333-212.014-16.073-281.59-33.896c-25.663-6.573-47.825-12.251-66.155-15.01
							c-64.312-9.678-132.97,8.325-133.656,8.509l-0.258-0.967c0.688-0.184,69.542-18.242,134.063-8.53
							c18.379,2.766,40.565,8.449,66.254,15.03c69.51,17.806,164.707,42.193,281.271,33.866
							c68.978-4.927,129.203-28.895,187.443-52.073c77.507-30.847,157.645-62.739,262.166-53.055
							c95.034,8.81,163.923,37.585,204.979,60.173c44.503,24.485,66.826,47.197,67.047,47.424L1189.877,754.228z"/>
					</g>
					<g>
						
							<linearGradient id="SVGID_00000161591951672697981210000003197533776378715783_" gradientUnits="userSpaceOnUse" x1="-10.4722" y1="722.2527" x2="1193.0479" y2="722.2527">
							<stop  offset="0.0614" style="stop-color:#ABE1FF"/>
							<stop  offset="1" style="stop-color:#D7EDFD;stop-opacity:0"/>
						</linearGradient>
						<path style="fill:url(#SVGID_00000161591951672697981210000003197533776378715783_);" d="M1192.37,775.169
							c-3.906-3.604-97.68-88.458-273.211-103.494c-28.2-2.312-56.26-1.624-83.399,2.04
							c-58.995,7.967-113.136,27.136-165.494,45.673c-63.585,22.512-129.334,45.79-202.029,47.626
							c-23.619,0.593-48.026-0.463-74.622-3.236c-69.954-7.292-132.376-23.079-182.533-35.764
							c-34.04-8.609-63.438-16.044-87.781-19.145c-60.233-7.67-126.417,7.871-133.366,10.972l-0.407-0.914
							c6.985-3.116,73.471-18.748,133.899-11.05c24.404,3.108,53.829,10.55,87.901,19.167
							c50.126,12.677,112.509,28.454,182.391,35.739c26.552,2.768,50.918,3.824,74.493,3.23
							c72.536-1.832,135.287-24.048,201.72-47.569c52.406-18.554,106.597-37.739,165.693-45.72
							c27.21-3.676,55.343-4.364,83.618-2.046c175.87,15.064,269.889,100.142,273.805,103.756L1192.37,775.169z"/>
					</g>
					<g>
						
							<linearGradient id="SVGID_00000123443401443107535050000003645344577887898502_" gradientUnits="userSpaceOnUse" x1="-8.2407" y1="745.2381" x2="1195.5215" y2="745.2381">
							<stop  offset="0.0614" style="stop-color:#ABE1FF"/>
							<stop  offset="1" style="stop-color:#D7EDFD;stop-opacity:0"/>
						</linearGradient>
						<path style="fill:url(#SVGID_00000123443401443107535050000003645344577887898502_);" d="M1194.844,796.091
							c-0.933-0.86-101.072-86.688-274.998-99.671c-28.176-2.103-56.22-0.995-83.359,3.29
							c-51.255,8.094-100.787,23.721-148.688,38.834c-67.834,21.402-137.904,43.508-212.235,43.51c-2.704,0-5.405-0.029-8.12-0.089
							c-22.755-0.499-46.814-2.973-73.554-7.562c-54.821-9.409-105.475-22.554-150.166-34.15
							c-45.886-11.907-85.515-22.19-118.406-25.67c-61.555-6.507-124.34,9.529-133.15,13.461l-0.407-0.914
							c8.852-3.949,71.905-20.077,133.663-13.541c32.965,3.487,72.627,13.779,118.552,25.696
							c44.672,11.592,95.305,24.73,150.084,34.132c26.69,4.581,50.702,7.05,73.407,7.548c77.2,1.706,149.809-21.219,220.033-43.374
							c47.936-15.124,97.503-30.764,148.832-38.869c27.218-4.298,55.344-5.406,83.59-3.3
							c174.259,13.008,274.667,99.071,275.602,99.935L1194.844,796.091z"/>
					</g>
					<g>
						
							<linearGradient id="SVGID_00000126323327296319172100000016598904113062032541_" gradientUnits="userSpaceOnUse" x1="-6.0098" y1="767.64" x2="1197.9961" y2="767.64">
							<stop  offset="0.0614" style="stop-color:#ABE1FF"/>
							<stop  offset="1" style="stop-color:#D7EDFD;stop-opacity:0"/>
						</linearGradient>
						<path style="fill:url(#SVGID_00000126323327296319172100000016598904113062032541_);" d="M1197.318,817.012
							c-3.521-3.25-31.673-24.416-80.458-46.545c-42.877-19.449-111.743-43.791-196.328-49.303
							c-28.493-1.858-56.524-0.33-83.318,4.539c-42.288,7.685-85.079,19.814-126.461,31.545
							c-78.956,22.381-160.598,45.523-244.103,39.666c-22.806-1.601-45.839-5.379-72.486-11.891
							c-36.206-8.847-70.609-18.51-103.88-27.855c-63.03-17.703-117.464-32.992-162.95-36.872
							c-57.317-4.889-118.32,9.431-132.935,15.951l-0.407-0.914c15.181-6.772,75.133-21.006,133.427-16.033
							c45.58,3.888,100.057,19.189,163.136,36.906c33.263,9.343,67.658,19.003,103.847,27.847
							c26.591,6.497,49.571,10.267,72.319,11.863c83.325,5.846,164.887-17.272,243.761-39.631
							c41.404-11.736,84.22-23.873,126.554-31.566c26.874-4.883,54.991-6.414,83.563-4.553
							c84.736,5.521,153.724,29.906,196.677,49.39c48.906,22.185,77.182,43.453,80.723,46.722L1197.318,817.012z"/>
					</g>
					<g>
						
							<linearGradient id="SVGID_00000039841823814351337780000009855350122215476874_" gradientUnits="userSpaceOnUse" x1="-3.7783" y1="781.1762" x2="1200.4697" y2="781.1762">
							<stop  offset="0.0614" style="stop-color:#ABE1FF"/>
							<stop  offset="1" style="stop-color:#D7EDFD;stop-opacity:0"/>
						</linearGradient>
						<path style="fill:url(#SVGID_00000039841823814351337780000009855350122215476874_);" d="M1199.792,837.934
							c-5.249-4.845-36.366-25.636-85.007-46.245c-43.43-18.401-112.266-41.281-193.567-45.78
							c-28.919-1.599-56.938,0.348-83.276,5.788c-31.561,6.521-63.168,14.73-96.631,23.423
							c-90.297,23.457-183.669,47.711-275.455,36.743c-22.67-2.708-46.032-8.014-71.42-16.219
							c-11.928-3.854-23.768-7.726-35.498-11.561c-84.654-27.676-164.613-53.816-229.59-58.073
							C73.036,722.319,15.121,736.2-3.371,744.452l-0.407-0.914c22.328-9.962,81.036-21.939,133.191-18.525
							c65.103,4.266,145.12,30.425,229.836,58.121c11.729,3.834,23.568,7.705,35.494,11.56
							c25.326,8.185,48.626,13.477,71.231,16.178c91.605,10.942,184.879-13.286,275.085-36.719
							c33.475-8.695,65.094-16.909,96.679-23.434c26.423-5.459,54.528-7.417,83.534-5.808c81.447,4.507,150.4,27.425,193.902,45.857
							c48.763,20.661,80.014,41.556,85.295,46.432L1199.792,837.934z"/>
					</g>
					<g>
						
							<linearGradient id="SVGID_00000056388023493177057910000010083567842571621795_" gradientUnits="userSpaceOnUse" x1="-1.5469" y1="794.6375" x2="1202.9434" y2="794.6375">
							<stop  offset="0.0614" style="stop-color:#ABE1FF"/>
							<stop  offset="1" style="stop-color:#D7EDFD;stop-opacity:0"/>
						</linearGradient>
						<path style="fill:url(#SVGID_00000056388023493177057910000010083567842571621795_);" d="M1202.266,858.856
							c-6.75-6.229-40.99-26.738-89.558-45.915c-43.936-17.348-112.702-38.766-190.804-42.287
							c-29.451-1.324-57.454,1.04-83.235,7.037c-17.882,4.159-36.005,8.658-55.192,13.421
							c-100.668,24.991-214.768,53.317-318.415,35.7c-23.161-3.937-46.174-10.659-70.356-20.552
							c-89.276-36.523-182.97-70.831-263.344-74.537c-50.383-2.316-105.873,9.051-132.502,20.932l-0.407-0.914
							c26.734-11.927,82.416-23.354,132.955-21.016c80.526,3.712,174.317,38.053,263.677,74.609
							c24.112,9.865,47.057,16.567,70.144,20.491c103.441,17.58,217.434-10.718,318.006-35.684
							c19.191-4.765,37.317-9.265,55.207-13.426c25.871-6.018,53.969-8.396,83.507-7.06c78.239,3.526,147.12,24.979,191.126,42.355
							c48.688,19.225,83.073,39.838,89.868,46.11L1202.266,858.856z"/>
					</g>
					<g>
						
							<linearGradient id="SVGID_00000171702283137403908770000007427648209118550407_" gradientUnits="userSpaceOnUse" x1="0.6846" y1="808.0535" x2="1205.417" y2="808.0535">
							<stop  offset="0.0614" style="stop-color:#ABE1FF"/>
							<stop  offset="1" style="stop-color:#D7EDFD;stop-opacity:0"/>
						</linearGradient>
						<path style="fill:url(#SVGID_00000171702283137403908770000007427648209118550407_);" d="M1204.739,879.778
							c-6.91-6.378-41.609-26.289-94.11-45.555c-44.391-16.29-113.048-36.249-188.039-38.824
							c-30.069-1.032-58.062,1.755-83.191,8.285c-76.256,19.816-182.173,47.34-282.809,47.342
							c-31.661,0.001-62.792-2.723-92.321-9.268c-23.524-5.214-46.837-13.586-69.29-24.885
							c-100.879-50.765-188.895-77.491-261.602-79.436c-52.007-1.392-103.908,10.76-132.285,23.422l-0.407-0.914
							c28.48-12.706,80.571-24.897,132.719-23.508c72.855,1.949,161.013,28.712,262.024,79.544
							c22.379,11.261,45.613,19.605,69.057,24.801c123.154,27.293,274.509-12.039,374.662-38.066
							c25.223-6.555,53.304-9.348,83.479-8.316c75.122,2.58,143.889,22.57,188.349,38.885c52.633,19.315,87.482,39.334,94.443,45.76
							L1204.739,879.778z"/>
					</g>
					<g>
						
							<linearGradient id="SVGID_00000010312526518007310600000008992874824683132089_" gradientUnits="userSpaceOnUse" x1="2.9155" y1="821.4207" x2="1207.8916" y2="821.4207">
							<stop  offset="0.0614" style="stop-color:#ABE1FF"/>
							<stop  offset="1" style="stop-color:#D7EDFD;stop-opacity:0"/>
						</linearGradient>
						<path style="fill:url(#SVGID_00000010312526518007310600000008992874824683132089_);" d="M1207.214,900.7
							c-8.038-7.419-44.954-26.904-98.664-45.165c-44.795-15.231-113.3-33.733-185.273-35.392
							c-30.797-0.71-58.769,2.498-83.15,9.534c-63.265,18.255-126.659,31.085-183.33,37.104
							c-74.936,7.958-139.98,4.568-193.323-10.077c-24.335-6.682-47.289-16.513-68.223-29.22
							c-62.722-38.073-158.718-83.609-259.859-84.334c-44.931-0.322-95.522,9.607-132.069,25.913l-0.407-0.914
							c36.669-16.36,87.438-26.343,132.483-25.999c101.369,0.727,197.542,46.341,260.371,84.479
							c20.856,12.66,43.724,22.454,67.969,29.11c53.222,14.613,118.14,17.992,192.953,10.048
							c56.613-6.013,119.948-18.831,183.158-37.07c24.479-7.064,52.559-10.282,83.451-9.573
							c72.099,1.661,140.71,20.191,185.571,35.444c54.443,18.511,90.679,37.679,99.02,45.378L1207.214,900.7z"/>
					</g>
					<g>
						
							<linearGradient id="SVGID_00000154414838161005479810000014932113640824792507_" gradientUnits="userSpaceOnUse" x1="5.147" y1="834.7288" x2="1210.3652" y2="834.7288">
							<stop  offset="0.0614" style="stop-color:#ABE1FF"/>
							<stop  offset="1" style="stop-color:#D7EDFD;stop-opacity:0"/>
						</linearGradient>
						<path style="fill:url(#SVGID_00000154414838161005479810000014932113640824792507_);" d="M1209.688,921.622
							c-20.74-19.145-161.226-75.358-285.724-76.733c-31.595-0.345-59.57,3.278-83.107,10.781
							c-55.786,17.783-120.884,30.003-183.304,34.408c-74.773,5.277-142.157-1.097-194.872-18.431
							c-25.207-8.287-47.801-19.577-67.156-33.557c-79.826-57.652-169.78-89.256-253.798-89.256c-1.445,0-2.878,0.01-4.319,0.028
							c-45.288,0.587-92.114,10.674-131.852,28.403l-0.407-0.914c39.86-17.783,86.826-27.901,132.247-28.489
							c85.463-1.092,177.344,30.648,258.716,89.417c19.271,13.919,41.773,25.162,66.882,33.418
							c111.336,36.609,269.852,18.352,377.559-15.982c23.641-7.535,51.703-11.189,83.424-10.828
							c124.73,1.378,265.577,57.787,286.39,76.999L1209.688,921.622z"/>
					</g>
					<g>
						
							<linearGradient id="SVGID_00000155831265664428814830000016490113619763987346_" gradientUnits="userSpaceOnUse" x1="7.3784" y1="847.9645" x2="1212.8389" y2="847.9645">
							<stop  offset="0.0614" style="stop-color:#ABE1FF"/>
							<stop  offset="1" style="stop-color:#D7EDFD;stop-opacity:0"/>
						</linearGradient>
						<path style="fill:url(#SVGID_00000155831265664428814830000016490113619763987346_);" d="M1212.161,942.544
							c-14.482-13.368-78.916-38.94-151.752-55.699c-52.683-12.123-151.164-28.914-218.823-5.184
							C779,903.612,691.427,915.807,613.027,913.498c-44.558-1.315-85.185-7.007-120.754-16.916
							c-39.663-11.05-72.121-27.16-96.473-47.886c-53.138-45.225-115.142-75.662-179.308-88.021
							c-34.101-6.568-68.66-8.002-102.716-4.257c-35.988,3.956-71.648,13.73-105.991,29.053l-0.407-0.914
							c34.437-15.364,70.198-25.166,106.289-29.133c34.155-3.754,68.816-2.317,103.015,4.268
							c64.335,12.393,126.498,42.906,179.767,88.242c24.241,20.631,56.571,36.674,96.093,47.685
							c35.491,9.888,76.038,15.566,120.516,16.879c78.269,2.315,165.718-9.867,228.197-31.78
							c67.899-23.814,166.593-6.994,219.378,5.152c72.991,16.795,137.63,42.484,152.206,55.939L1212.161,942.544z"/>
					</g>
				</g>
				
					<linearGradient id="SVGID_00000088812732207194932160000012576869548855601810_" gradientUnits="userSpaceOnUse" x1="593.7795" y1="952.5397" x2="593.7795" y2="724.4051">
					<stop  offset="0.061" style="stop-color:#004BBA"/>
					<stop  offset="1" style="stop-color:#D7EDFD;stop-opacity:0"/>
				</linearGradient>
				<path style="fill:url(#SVGID_00000088812732207194932160000012576869548855601810_);" d="M1196.239,909.581
					c-136.69-126.176-389.175-43.322-545.461-36.038C408.235,884.847,233.675,644.29-8.679,752.417V952.54h1204.918V909.581z"/>
				
					<linearGradient id="SVGID_00000060015262014442913520000011685186309592435860_" gradientUnits="userSpaceOnUse" x1="418.3255" y1="661.5742" x2="1200.4944" y2="661.5742">
					<stop  offset="0" style="stop-color:#D7EDFD;stop-opacity:0"/>
					<stop  offset="0.9385" style="stop-color:#3C90D6"/>
				</linearGradient>
				<path style="fill:url(#SVGID_00000060015262014442913520000011685186309592435860_);" d="M1200.469,872.844
					c-9.122-4.839-18.553-9.087-28.183-12.811c-10.315-3.99-20.857-7.382-31.526-10.291c-11.741-3.202-23.637-5.821-35.609-8
					c-13.26-2.414-26.615-4.29-40.01-5.777c-14.906-1.654-29.864-2.827-44.837-3.661c-16.681-0.929-33.383-1.436-50.088-1.652
					c-18.587-0.241-37.178-0.12-55.763,0.248c-20.628,0.408-41.251,1.122-61.862,2.041c-22.807,1.017-45.602,2.288-68.387,3.727
					c-25.124,1.587-50.235,3.379-75.335,5.305c-23.132,1.775-46.317,2.89-69.52,2.957c-19.19,0.056-38.393-0.583-57.517-2.222
					c-15.597-1.336-31.149-3.336-46.526-6.282c-12.527-2.4-24.947-5.428-37.091-9.338c-9.643-3.104-19.119-6.767-28.242-11.181
					c-7.253-3.509-14.288-7.496-20.912-12.089c-5.093-3.532-9.948-7.425-14.396-11.744c-3.337-3.24-6.45-6.722-9.203-10.473
					c-1.855-2.528-3.555-5.181-4.989-7.972c-0.744-1.448-1.44-2.939-1.962-4.483c-0.065-0.193-0.128-0.386-0.185-0.581
					c0.852,1.253,1.821,2.431,2.803,3.583c2.757,3.235,5.792,6.235,8.969,9.057c5.003,4.445,10.394,8.449,16.023,12.064
					c7.63,4.9,15.711,9.085,24.049,12.64c10.562,4.503,21.544,7.994,32.712,10.642c14.003,3.32,28.304,5.318,42.657,6.295
					c17.639,1.2,35.367,0.863,52.981-0.585c21.807-1.793,43.457-5.286,64.828-9.947c25.999-5.672,51.606-13.078,76.792-21.649
					c26.115-8.887,51.814-18.994,76.962-30.331c22.852-10.301,45.255-21.594,67.16-33.779c20.852-11.599,41.254-24.007,61.176-37.14
					c18.827-12.411,37.227-25.47,55.18-39.115c16.57-12.594,32.761-25.686,48.557-39.238c14.451-12.396,28.572-25.177,42.348-38.319
					c12.096-11.54,23.927-23.359,35.472-35.451c9.833-10.299,19.46-20.796,28.854-31.497c7.416-8.448,14.688-17.022,21.783-25.741
					c4.978-6.117,9.873-12.303,14.644-18.582c2.492-3.28,4.958-6.583,7.35-9.937c0.292-0.409,0.582-0.818,0.869-1.23
					L1200.469,872.844z"/>
				
					<linearGradient id="SVGID_00000022536662727193724710000005575667988074277027_" gradientUnits="userSpaceOnUse" x1="-8.6795" y1="690.3925" x2="793.0793" y2="690.3925">
					<stop  offset="0.0614" style="stop-color:#ABE1FF"/>
					<stop  offset="1" style="stop-color:#D7EDFD;stop-opacity:0"/>
				</linearGradient>
				<path style="fill:url(#SVGID_00000022536662727193724710000005575667988074277027_);" d="M-8.679,590.762
					c141.363-16.65,283.913,29.355,400.051,107.986c130.077,88.069,277.145,94.517,401.707-9.027
					c-62.006,105.846-259.61,130.546-359.62,74.626c-52.565-29.391-93.893-75.673-145.811-106.423
					c-89.599-53.067-194-63.952-296.327-57.332V590.762z"/>
			</g>
			<g>
				
					<linearGradient id="SVGID_00000070114738794986642530000008888007366620227478_" gradientUnits="userSpaceOnUse" x1="600" y1="135.7974" x2="600" y2="-39.6697">
					<stop  offset="0" style="stop-color:#D7EDFD;stop-opacity:0"/>
					<stop  offset="0.9389" style="stop-color:#3087CF"/>
				</linearGradient>
				<path style="fill:url(#SVGID_00000070114738794986642530000008888007366620227478_);" d="M-2.295,91.952
					c134.97-55.992,295.708-68.175,438.127-40.449c171.88,33.461,337.949,105.087,516.64,78.463
					c78.73-11.73,176.175-41.719,249.823,5.831V-39.67H-2.295V91.952z"/>
				
					<linearGradient id="SVGID_00000066509366856072406630000009773747665861154729_" gradientUnits="userSpaceOnUse" x1="-9.4763" y1="155.8248" x2="829.9808" y2="155.8248">
					<stop  offset="0.0614" style="stop-color:#ABE1FF"/>
					<stop  offset="1" style="stop-color:#D7EDFD;stop-opacity:0"/>
				</linearGradient>
				<path style="fill:url(#SVGID_00000066509366856072406630000009773747665861154729_);" d="M829.615,135.641
					c-21.8,7.969-45.469,12.943-69.291,16.134c-25.493,3.415-51.492,4.779-77.375,4.368c-24.438-0.389-48.964-2.33-72.777-6.535
					c-29.675-5.24-58.686-12.404-87.428-19.968c-28.8-7.579-57.392-15.607-86.406-22.723c-28.771-7.056-57.991-13.023-87.673-17.515
					c-29.672-4.491-59.739-7.566-89.953-9.014c-30.108-1.443-60.368-1.266-90.422,0.756c-29.481,1.983-58.882,5.665-87.457,11.486
					c-26.267,5.351-52.127,12.834-74.667,24.432c-5.45,2.804-10.686,5.843-15.642,9.121c34.568-4.449,69.656-6.605,104.728-6.557
					c35.087,0.048,70.113,2.344,104.701,6.737c33.898,4.306,67.747,9.613,100.088,18.508c28.658,7.882,55.835,18.422,82.57,29.379
					c26.701,10.943,53.08,22.37,80.547,32.223c26.853,9.632,54.88,17.742,84.19,22.007c26.614,3.872,53.996,4.651,80.963,2.681
					c27.081-1.979,53.825-6.733,79.156-14.18c25.159-7.397,48.977-17.485,69.975-30.254c9.912-6.028,18.802-12.737,27.577-19.661
					c8.135-6.419,16.893-13.079,22.1-21.129C829.146,142.802,830.724,139.139,829.615,135.641z"/>
				<g>
					<g>
						
							<linearGradient id="SVGID_00000111880605240730013860000005938523060749802901_" gradientUnits="userSpaceOnUse" x1="277.6004" y1="167.2989" x2="1274.4495" y2="167.2989">
							<stop  offset="0" style="stop-color:#D7EDFD;stop-opacity:0"/>
							<stop  offset="0.9382" style="stop-color:#19ADFF"/>
						</linearGradient>
						<path style="fill:url(#SVGID_00000111880605240730013860000005938523060749802901_);" d="M1274.223,355.751
							c-113.964-26.561-222.631-79.076-314.253-151.868c-12.636-10.039-25.177-20.639-37.305-30.89
							c-23.32-19.712-47.435-40.096-73.227-57.325c-45.795-30.59-90.044-45.78-131.517-45.201
							c-23.857,0.343-47.563,5.969-70.488,11.41c-10.208,2.422-20.764,4.928-31.208,6.938
							c-59.623,11.48-122.917,7.291-183.039-12.111C373.068,57.301,319.266,23.7,277.6-20.467l0.728-0.687
							c41.551,44.045,95.207,77.555,155.167,96.906c59.961,19.351,123.082,23.528,182.542,12.081
							c10.423-2.006,20.968-4.509,31.166-6.929c22.978-5.453,46.738-11.091,70.705-11.437c41.696-0.582,86.121,14.664,132.085,45.37
							c25.839,17.261,49.976,37.663,73.317,57.393c12.122,10.247,24.657,20.842,37.28,30.871
							c91.508,72.701,200.038,125.15,313.858,151.678L1274.223,355.751z"/>
					</g>
					<g>
						
							<linearGradient id="SVGID_00000121274672665978520020000017251910853757890455_" gradientUnits="userSpaceOnUse" x1="278.5736" y1="155.8248" x2="1274.7502" y2="155.8248">
							<stop  offset="0" style="stop-color:#D7EDFD;stop-opacity:0"/>
							<stop  offset="0.9382" style="stop-color:#19ADFF"/>
						</linearGradient>
						<path style="fill:url(#SVGID_00000121274672665978520020000017251910853757890455_);" d="M1274.51,340.043
							c-114.131-28.233-222.755-79.464-314.131-148.154c-12.649-9.515-25.223-19.548-37.381-29.251
							c-14.604-11.653-29.703-23.703-45.012-34.913c-10.317-7.554-19.83-14.073-29.08-19.932
							c-45.999-29.141-90.213-43.703-131.454-43.289c-23.581,0.237-47.026,5.388-69.699,10.37
							c-10.357,2.276-21.067,4.629-31.658,6.485c-56.761,9.938-116.851,5.86-173.776-11.79
							c-30.242-9.374-59.834-22.637-87.956-39.423c-28.042-16.737-53.54-36.192-75.79-57.824l0.697-0.717
							c22.193,21.579,47.631,40.986,75.605,57.683c28.053,16.745,57.573,29.976,87.739,39.326
							c56.775,17.604,116.704,21.67,173.307,11.76c10.569-1.852,21.268-4.203,31.616-6.477c22.723-4.992,46.22-10.155,69.904-10.393
							c41.461-0.421,85.835,14.198,131.999,43.444c9.269,5.871,18.8,12.403,29.136,19.97c15.325,11.222,30.434,23.278,45.044,34.938
							c12.153,9.698,24.721,19.727,37.359,29.233c91.268,68.609,199.768,119.781,313.769,147.982L1274.51,340.043z"/>
					</g>
					<g>
						
							<linearGradient id="SVGID_00000010271186486248995760000004885539338582942652_" gradientUnits="userSpaceOnUse" x1="279.5486" y1="144.3499" x2="1275.05" y2="144.3499">
							<stop  offset="0" style="stop-color:#D7EDFD;stop-opacity:0"/>
							<stop  offset="0.9382" style="stop-color:#19ADFF"/>
						</linearGradient>
						<path style="fill:url(#SVGID_00000010271186486248995760000004885539338582942652_);" d="M1274.796,324.335
							c-114.577-30.012-223.158-79.958-314.005-144.438c-12.643-8.984-25.227-18.442-37.396-27.589
							c-14.853-11.165-30.213-22.71-45.75-33.441c-10.379-7.167-19.953-13.364-29.271-18.945
							c-46.203-27.692-90.398-41.632-131.393-41.378c-23.282,0.133-46.443,4.812-68.842,9.337
							c-10.529,2.127-21.417,4.327-32.176,6.025c-56.751,8.94-116.466,4.097-172.691-14.008
							c-29.203-9.396-58.611-22.751-87.408-39.693c-27.551-16.21-53.941-35.26-76.316-55.091l0.663-0.748
							c22.328,19.79,48.664,38.8,76.16,54.978c28.734,16.904,58.075,30.229,87.208,39.603
							c56.076,18.057,115.631,22.89,172.229,13.972c10.738-1.695,21.615-3.893,32.133-6.018c22.445-4.534,45.655-9.223,69.034-9.356
							c41.215-0.263,85.552,13.732,131.913,41.52c9.336,5.593,18.929,11.801,29.325,18.98
							c15.554,10.743,30.921,22.294,45.782,33.465c12.164,9.143,24.741,18.597,37.374,27.573
							c90.749,64.411,199.218,114.305,313.68,144.286L1274.796,324.335z"/>
					</g>
					<g>
						
							<linearGradient id="SVGID_00000009563158272175834880000016245169712686689421_" gradientUnits="userSpaceOnUse" x1="280.5252" y1="132.8748" x2="1275.3499" y2="132.8748">
							<stop  offset="0" style="stop-color:#D7EDFD;stop-opacity:0"/>
							<stop  offset="0.9382" style="stop-color:#19ADFF"/>
						</linearGradient>
						<path style="fill:url(#SVGID_00000009563158272175834880000016245169712686689421_);" d="M1275.082,308.626
							c-115.42-31.945-223.958-80.606-313.881-140.723c-12.61-8.446-25.179-17.322-37.334-25.906
							c-15.128-10.684-30.771-21.732-46.563-31.993c-10.457-6.792-20.094-12.666-29.462-17.959
							c-46.403-26.244-90.57-39.491-131.331-39.465c-22.96,0.03-45.813,4.241-67.915,8.313c-10.724,1.976-21.813,4.019-32.764,5.556
							c-56.745,7.936-116.087,2.326-171.606-16.225c-28.042-9.36-57.266-22.806-86.86-39.963
							c-27.283-15.818-53.854-33.923-76.841-52.357l0.626-0.78c22.948,18.403,49.476,36.479,76.717,52.272
							c29.535,17.124,58.696,30.542,86.674,39.88c55.376,18.502,114.56,24.099,171.151,16.183
							c10.929-1.534,22.008-3.575,32.722-5.549c22.145-4.08,45.044-8.299,68.094-8.33c0.088,0,0.179,0,0.266,0
							c40.843,0,85.102,13.32,131.56,39.595c9.386,5.302,19.04,11.187,29.515,17.99c15.808,10.272,31.459,21.325,46.595,32.015
							c12.149,8.581,24.713,17.453,37.313,25.892c89.834,60.059,198.272,108.674,313.592,140.59L1275.082,308.626z"/>
					</g>
					<g>
						
							<linearGradient id="SVGID_00000095325710279113616650000015273899824614198695_" gradientUnits="userSpaceOnUse" x1="281.5042" y1="121.4" x2="1275.6497" y2="121.4">
							<stop  offset="0" style="stop-color:#D7EDFD;stop-opacity:0"/>
							<stop  offset="0.9382" style="stop-color:#19ADFF"/>
						</linearGradient>
						<path style="fill:url(#SVGID_00000095325710279113616650000015273899824614198695_);" d="M1275.37,292.917
							c-118.524-34.593-224.087-80.689-313.756-137.008c-12.552-7.901-25.078-16.189-37.191-24.204
							c-15.43-10.21-31.385-20.767-47.457-30.563c-10.53-6.412-20.229-11.963-29.653-16.971
							C800.706,59.374,756.54,46.739,716.04,46.619c-0.209,0-0.421-0.001-0.631-0.001c-22.396,0-44.696,3.711-66.271,7.301
							c-10.947,1.822-22.267,3.706-33.438,5.075c-56.744,6.925-115.707,0.546-170.521-18.442
							c-27.098-9.376-55.331-22.537-86.312-40.235c-26.607-15.198-53.359-32.357-77.364-49.623l0.584-0.812
							c23.977,17.245,50.699,34.385,77.276,49.566c30.927,17.667,59.104,30.803,86.143,40.158
							c54.671,18.94,113.482,25.299,170.073,18.395c11.149-1.368,22.458-3.25,33.395-5.069c21.816-3.63,44.355-7.396,67.069-7.314
							c40.663,0.121,84.986,12.795,131.737,37.67c9.441,5.017,19.158,10.578,29.704,17c16.089,9.806,32.052,20.368,47.489,30.583
							c12.109,8.012,24.63,16.297,37.172,24.191c89.591,56.27,195.068,102.327,313.503,136.894L1275.37,292.917z"/>
					</g>
					<g>
						
							<linearGradient id="SVGID_00000018208841968802990090000013327292890232062374_" gradientUnits="userSpaceOnUse" x1="282.4852" y1="109.9251" x2="1275.9495" y2="109.9251">
							<stop  offset="0" style="stop-color:#D7EDFD;stop-opacity:0"/>
							<stop  offset="0.9382" style="stop-color:#19ADFF"/>
						</linearGradient>
						<path style="fill:url(#SVGID_00000018208841968802990090000013327292890232062374_);" d="M1275.657,277.208
							c-120.921-37.153-226.441-81.999-313.631-133.293c-12.451-7.346-24.894-15.034-36.926-22.47
							c-15.771-9.746-32.079-19.823-48.474-29.164c-10.6-6.033-20.361-11.261-29.844-15.984
							c-46.806-23.351-90.952-35.343-131.212-35.641c-22.254-0.177-44.374,3.121-65.794,6.301
							c-11.202,1.664-22.785,3.384-34.207,4.581c-56.741,5.903-115.332-1.24-169.436-20.66
							c-25.892-9.28-53.144-22.151-85.763-40.505c-24.708-13.901-50.913-29.677-77.885-46.889l0.538-0.843
							c26.957,17.201,53.145,32.967,77.837,46.86c32.569,18.325,59.772,31.174,85.61,40.435
							c53.964,19.369,112.401,26.497,168.995,20.607c11.4-1.195,22.973-2.914,34.165-4.576c21.459-3.186,43.663-6.494,65.948-6.312
							c40.413,0.3,84.707,12.326,131.65,35.746c9.499,4.731,19.276,9.968,29.892,16.01c16.41,9.35,32.727,19.432,48.505,29.183
							c12.028,7.433,24.467,15.119,36.908,22.458c87.122,51.254,192.57,96.069,313.416,133.199L1275.657,277.208z"/>
					</g>
					<g>
						
							<linearGradient id="SVGID_00000030473445723715308090000002790025848571915168_" gradientUnits="userSpaceOnUse" x1="283.4686" y1="98.4508" x2="1276.2493" y2="98.4508">
							<stop  offset="0" style="stop-color:#D7EDFD;stop-opacity:0"/>
							<stop  offset="0.9382" style="stop-color:#19ADFF"/>
						</linearGradient>
						<path style="fill:url(#SVGID_00000030473445723715308090000002790025848571915168_);" d="M1275.943,261.5
							c-128.447-41.479-228.065-82.653-313.503-129.579c-12.295-6.774-24.598-13.849-36.495-20.691
							c-16.167-9.297-32.885-18.911-49.658-27.81c-10.663-5.651-20.487-10.557-30.034-14.997
							c-47.664-22.214-90.564-33.247-131.151-33.729c-21.798-0.266-43.538,2.574-64.563,5.319
							c-11.498,1.501-23.387,3.053-35.101,4.069c-56.742,4.878-114.957-3.032-168.351-22.876
							c-31.015-11.508-60.482-27.07-85.215-40.775c-15.79-8.749-31.405-17.6-46.506-26.159
							c-11.247-6.375-21.871-12.396-31.897-17.997l0.487-0.873c10.029,5.602,20.654,11.624,31.902,18
							c15.099,8.558,30.712,17.408,46.498,26.154c24.701,13.687,54.126,29.227,85.079,40.712
							c53.258,19.793,111.323,27.681,167.916,22.818c11.692-1.015,23.571-2.565,35.058-4.065c21.06-2.749,42.839-5.581,64.704-5.327
							c40.732,0.484,83.767,11.547,131.561,33.822c9.563,4.448,19.402,9.361,30.081,15.02c16.788,8.907,33.514,18.525,49.688,27.827
							c11.893,6.839,24.191,13.912,36.478,20.682c85.381,46.894,184.943,88.044,313.328,129.503L1275.943,261.5z"/>
					</g>
					<g>
						
							<linearGradient id="SVGID_00000114055644737423143150000006990012760218937010_" gradientUnits="userSpaceOnUse" x1="284.4539" y1="86.9764" x2="1276.55" y2="86.9764">
							<stop  offset="0" style="stop-color:#D7EDFD;stop-opacity:0"/>
							<stop  offset="0.9382" style="stop-color:#19ADFF"/>
						</linearGradient>
						<path style="fill:url(#SVGID_00000114055644737423143150000006990012760218937010_);" d="M1276.23,245.79
							c-98.416-33.352-212.611-74.388-313.378-125.864c-12.071-6.19-24.166-12.637-35.863-18.871
							c-16.629-8.863-33.824-18.028-51.041-26.498c-10.727-5.271-20.613-9.854-30.225-14.01
							C797.862,39.8,754.981,29.393,714.63,28.732c-21.339-0.354-42.612,2.04-63.197,4.357c-11.837,1.332-24.077,2.709-36.127,3.537
							c-56.743,3.846-114.582-4.833-167.265-25.093c-29.363-11.273-57.927-26.458-84.667-41.046
							c-29.486-16.084-55.777-30.304-78.919-41.423l0.433-0.901c23.164,11.13,49.467,25.355,78.965,41.446
							c26.711,14.572,55.241,29.739,84.547,40.99c52.549,20.208,110.238,28.866,166.839,25.029
							c12.028-0.826,24.257-2.202,36.083-3.533c20.616-2.32,41.932-4.716,63.326-4.364c40.484,0.663,83.49,11.097,131.474,31.898
							c9.626,4.163,19.527,8.753,30.269,14.031c17.231,8.477,34.434,17.646,51.069,26.512c11.694,6.233,23.786,12.678,35.85,18.864
							c100.709,51.446,214.86,92.466,313.242,125.807L1276.23,245.79z"/>
					</g>
					<g>
						
							<linearGradient id="SVGID_00000083061300507182358730000012589719203469575309_" gradientUnits="userSpaceOnUse" x1="285.4407" y1="75.5025" x2="1276.8499" y2="75.5025">
							<stop  offset="0" style="stop-color:#D7EDFD;stop-opacity:0"/>
							<stop  offset="0.9382" style="stop-color:#19ADFF"/>
						</linearGradient>
						<path style="fill:url(#SVGID_00000083061300507182358730000012589719203469575309_);" d="M1276.516,230.081l-17.827-6.327
							c-99.484-35.294-202.355-71.79-295.423-115.822c-11.759-5.587-23.558-11.389-34.968-17
							c-17.178-8.447-34.939-17.181-52.689-25.237c-10.788-4.89-20.737-9.149-30.415-13.023
							C797.141,33.39,754.28,23.609,714.159,22.77c-20.791-0.443-41.569,1.523-61.657,3.422
							c-12.235,1.156-24.886,2.352-37.329,2.979C558.426,31.97,500.963,22.528,448.993,1.86
							c-27.652-10.979-54.468-25.386-80.402-39.32l-3.716-1.996c-21.336-11.455-52.783-27.929-79.434-38.692l0.375-0.927
							c26.696,10.781,58.176,27.272,79.532,38.738l3.717,1.996c25.909,13.92,52.7,28.314,80.298,39.271
							c51.838,20.617,109.159,30.036,165.761,27.242c12.421-0.625,25.061-1.82,37.284-2.976c20.116-1.901,40.921-3.866,61.774-3.426
							c40.242,0.842,83.219,10.647,131.385,29.974c9.691,3.879,19.653,8.145,30.456,13.041c17.765,8.063,35.533,16.8,52.718,25.25
							c11.407,5.609,23.203,11.41,34.955,16.994c93.022,44.01,195.868,80.498,295.328,115.783l17.827,6.327L1276.516,230.081z"/>
					</g>
					<g>
						
							<linearGradient id="SVGID_00000055705683484796219570000014165424615312155837_" gradientUnits="userSpaceOnUse" x1="286.43" y1="64.0296" x2="1277.1508" y2="64.0296">
							<stop  offset="0" style="stop-color:#D7EDFD;stop-opacity:0"/>
							<stop  offset="0.9382" style="stop-color:#19ADFF"/>
						</linearGradient>
						<path style="fill:url(#SVGID_00000055705683484796219570000014165424615312155837_);" d="M1276.803,214.371
							c-30.313-11.269-61.434-22.469-91.53-33.3c-74.166-26.691-150.857-54.292-221.594-85.134
							c-11.324-4.961-22.703-10.097-33.707-15.063c-17.845-8.053-36.297-16.38-54.7-24.042
							c-10.852-4.511-20.864-8.448-30.607-12.036c-48.24-17.817-91.082-26.972-130.975-27.989
							c-20.197-0.519-40.387,1.025-59.911,2.518c-12.701,0.972-25.833,1.976-38.737,2.388C558.286,23.47,501.2,13.255,449.947-7.814
							c-24.026-9.858-47.468-22.357-70.138-34.445c-4.477-2.387-8.953-4.773-13.433-7.141c-32.65-17.25-58.8-29.013-79.946-35.962
							l0.313-0.95c21.199,6.967,47.401,18.752,80.101,36.028c4.481,2.367,8.958,4.754,13.436,7.142
							c22.648,12.076,46.067,24.563,70.047,34.403c51.125,21.016,108.071,31.203,164.683,29.453
							c12.882-0.411,26.003-1.414,38.693-2.385c19.549-1.496,39.764-3.04,60.013-2.521c40.004,1.02,82.951,10.195,131.295,28.05
							c9.756,3.593,19.78,7.535,30.646,12.051c18.417,7.668,36.876,15.998,54.727,24.054c11.002,4.965,22.378,10.099,33.696,15.058
							c70.707,30.829,147.382,58.424,221.531,85.11c30.099,10.832,61.223,22.033,91.54,33.304L1276.803,214.371z"/>
					</g>
					<g>
						
							<linearGradient id="SVGID_00000166660189257075015640000000354541628721241764_" gradientUnits="userSpaceOnUse" x1="287.4207" y1="52.5574" x2="1277.4504" y2="52.5574">
							<stop  offset="0" style="stop-color:#D7EDFD;stop-opacity:0"/>
							<stop  offset="0.9382" style="stop-color:#19ADFF"/>
						</linearGradient>
						<path style="fill:url(#SVGID_00000166660189257075015640000000354541628721241764_);" d="M1277.088,198.662
							c-49.016-19.05-99.736-36.959-148.787-54.278c-54.66-19.3-111.183-39.257-164.207-60.443
							c-10.729-4.309-21.524-8.752-31.965-13.05c-18.672-7.685-37.978-15.632-57.195-22.921
							c-10.922-4.134-20.996-7.749-30.798-11.049c-48.419-16.351-91.242-24.88-130.917-26.075
							c-19.509-0.591-39.025,0.55-57.902,1.655c-13.252,0.776-26.957,1.578-40.408,1.757C557.334,14.963,502.158,4.28,450.9-17.488
							c-21.161-8.969-41.899-20.025-61.954-30.718c-6.897-3.677-14.028-7.478-21.068-11.138
							c-31.895-16.576-58.964-27.758-80.458-33.235l0.247-0.969c21.567,5.496,48.709,16.705,80.671,33.316
							c7.045,3.662,14.179,7.465,21.077,11.143c20.036,10.682,40.754,21.727,61.875,30.68
							c51.13,21.713,106.184,32.383,163.605,31.666c13.429-0.178,27.121-0.98,40.363-1.755c18.896-1.107,38.438-2.249,57.99-1.657
							c39.775,1.198,82.693,9.744,131.206,26.127c9.813,3.304,19.899,6.922,30.833,11.061c19.23,7.294,38.544,15.244,57.221,22.932
							c10.438,4.297,21.233,8.74,31.957,13.047c53.005,21.179,109.517,41.132,164.168,60.429
							c49.059,17.321,99.786,35.233,148.816,54.289L1277.088,198.662z"/>
					</g>
					<g>
						
							<linearGradient id="SVGID_00000047057830614026453030000014378454753040946830_" gradientUnits="userSpaceOnUse" x1="288.4124" y1="41.0865" x2="1277.7513" y2="41.0865">
							<stop  offset="0" style="stop-color:#D7EDFD;stop-opacity:0"/>
							<stop  offset="0.9382" style="stop-color:#19ADFF"/>
						</linearGradient>
						<path style="fill:url(#SVGID_00000047057830614026453030000014378454753040946830_);" d="M1277.374,182.952
							c-63.898-25.936-130.613-48.465-195.132-70.251c-39.01-13.173-79.347-26.794-117.734-40.756
							c-9.87-3.61-19.818-7.318-29.438-10.904c-19.755-7.364-40.182-14.979-60.473-21.934c-10.974-3.754-21.11-7.045-30.989-10.062
							c-48.585-14.885-91.39-22.789-130.859-24.162c-18.71-0.654-37.446,0.107-55.566,0.845c-13.913,0.566-28.3,1.157-42.407,1.074
							C557.199,6.422,502.385-5.004,451.854-27.161c-18.837-8.245-37.362-18.173-55.276-27.775
							c-8.89-4.765-18.082-9.691-27.198-14.351c-31.778-16.243-59.02-26.507-80.967-30.509l0.18-0.983
							c22.043,4.019,49.377,14.315,81.243,30.602c9.124,4.664,18.321,9.593,27.215,14.36c17.897,9.593,36.404,19.512,55.206,27.741
							C502.66-5.975,557.343,5.423,614.782,5.801c14.081,0.079,28.458-0.507,42.359-1.073c18.14-0.738,36.896-1.501,55.642-0.845
							c39.559,1.376,82.447,9.293,131.116,24.205c9.89,3.02,20.037,6.314,31.022,10.072c20.304,6.96,40.737,14.577,60.498,21.943
							c9.619,3.585,19.565,7.293,29.432,10.902c38.376,13.958,78.708,27.577,117.711,40.748
							c64.532,21.791,131.262,44.325,195.19,70.272L1277.374,182.952z"/>
					</g>
					<g>
						
							<linearGradient id="SVGID_00000041985094516217498090000011942281811371540617_" gradientUnits="userSpaceOnUse" x1="289.4051" y1="29.6163" x2="1278.0521" y2="29.6163">
							<stop  offset="0" style="stop-color:#D7EDFD;stop-opacity:0"/>
							<stop  offset="0.9382" style="stop-color:#19ADFF"/>
						</linearGradient>
						<path style="fill:url(#SVGID_00000041985094516217498090000011942281811371540617_);" d="M1277.661,167.242
							c-76.007-32.188-156.184-57.514-233.721-82.007c-26.08-8.238-53.047-16.757-79.018-25.287
							c-8.633-2.853-17.217-5.726-25.778-8.593C917.934,44.255,896,36.911,874.26,30.242c-11.028-3.376-21.228-6.344-31.181-9.074
							C794.337,7.747,751.552,0.47,712.278-1.079c-17.763-0.705-35.572-0.296-52.797,0.1c-14.717,0.337-29.936,0.687-44.837,0.323
							c-57.585-1.469-112.035-13.641-161.837-36.178c-16.915-7.641-33.592-16.664-49.721-25.39
							c-10.506-5.684-21.371-11.562-32.204-17.006c-31.311-15.734-59.485-25.342-81.477-27.786l0.11-0.994
							c22.108,2.457,50.399,12.1,81.815,27.886c10.847,5.451,21.718,11.332,32.231,17.02c16.113,8.718,32.775,17.732,49.657,25.358
							c49.68,22.481,103.999,34.623,161.45,36.089c14.876,0.366,30.083,0.015,44.79-0.323c17.238-0.396,35.064-0.807,52.858-0.099
							c39.352,1.553,82.211,8.841,131.027,22.282c9.962,2.732,20.171,5.704,31.209,9.083c21.753,6.673,43.692,14.019,64.909,21.122
							c8.56,2.866,17.144,5.739,25.774,8.591c25.963,8.528,52.929,17.046,79.005,25.283c77.56,24.5,157.76,49.834,233.811,82.04
							L1277.661,167.242z"/>
					</g>
					<g>
						
							<linearGradient id="SVGID_00000063598261907318413930000003150289940849718460_" gradientUnits="userSpaceOnUse" x1="290.3978" y1="18.1476" x2="1278.3519" y2="18.1476">
							<stop  offset="0" style="stop-color:#D7EDFD;stop-opacity:0"/>
							<stop  offset="0.9382" style="stop-color:#19ADFF"/>
						</linearGradient>
						<path style="fill:url(#SVGID_00000063598261907318413930000003150289940849718460_);" d="M1277.948,151.532
							c-86.006-37.964-177.797-64.516-266.566-90.193c-15.149-4.382-30.814-8.913-46.044-13.387
							c-6.772-2.002-13.517-4.011-20.246-6.014c-23.283-6.933-47.36-14.102-71.169-20.561c-11.056-2.992-21.317-5.637-31.372-8.087
							C793.679,1.337,750.912-5.313,711.807-7.042c-16.631-0.739-33.325-0.646-49.47-0.557c-15.708,0.087-31.948,0.177-47.826-0.515
							C556.915-10.682,502.831-23.6,453.76-46.508c-15.3-7.13-30.418-15.412-45.038-23.421c-11.83-6.48-24.063-13.181-36.338-19.245
							c-21.855-10.794-53.82-23.904-81.986-25.064l0.041-0.999c28.341,1.167,60.445,14.33,82.388,25.167
							c12.294,6.073,24.537,12.779,36.375,19.264c14.606,8.001,29.71,16.275,44.981,23.392
							c48.952,22.852,102.909,35.739,160.373,38.302c15.854,0.691,32.083,0.602,47.777,0.514c16.157-0.089,32.864-0.182,49.52,0.558
							c39.171,1.731,82.001,8.391,130.937,20.359c10.061,2.452,20.332,5.099,31.396,8.094c23.82,6.461,47.903,13.632,71.193,20.567
							c6.728,2.003,13.473,4.012,20.242,6.013c15.228,4.474,30.892,9.004,46.04,13.386c88.8,25.687,180.624,52.248,266.691,90.239
							L1277.948,151.532z"/>
					</g>
					<g>
						
							<linearGradient id="SVGID_00000157280278302739310190000005953948495379198350_" gradientUnits="userSpaceOnUse" x1="291.3626" y1="6.6617" x2="1278.6517" y2="6.6617">
							<stop  offset="0" style="stop-color:#D7EDFD;stop-opacity:0"/>
							<stop  offset="0.9382" style="stop-color:#19ADFF"/>
						</linearGradient>
						<path style="fill:url(#SVGID_00000157280278302739310190000005953948495379198350_);" d="M1278.234,135.822
							c-94.332-43.366-196.333-69.783-294.977-95.33c-5.85-1.515-11.685-3.026-17.505-4.538l-11.19-2.929
							c-26.516-6.944-53.935-14.126-80.975-20.513c-11.09-2.613-21.415-4.936-31.564-7.099
							c-48.967-10.484-91.714-16.509-130.686-18.417c-15.236-0.75-30.552-0.925-45.363-1.095
							c-16.954-0.194-34.486-0.396-51.595-1.471c-57.606-3.678-111.325-17.341-159.665-40.611
							c-13.923-6.692-27.706-14.355-41.035-21.766c-12.924-7.186-26.289-14.616-39.793-21.17
							c-21.898-10.626-53.985-23.121-82.496-22.346l-0.027-1c28.696-0.799,60.961,11.77,82.959,22.446
							c13.53,6.566,26.906,14.003,39.843,21.196c13.316,7.403,27.085,15.059,40.982,21.738
							c48.224,23.214,101.818,36.845,159.294,40.514c17.083,1.074,34.602,1.274,51.543,1.469c14.821,0.17,30.146,0.346,45.401,1.096
							c39.026,1.912,81.826,7.943,130.846,18.438c10.156,2.166,20.488,4.489,31.585,7.104c27.053,6.391,54.477,13.573,80.998,20.519
							l11.19,2.929c5.817,1.511,11.653,3.022,17.503,4.537c98.686,25.559,200.73,51.987,295.144,95.39L1278.234,135.822z"/>
					</g>
					<g>
						
							<linearGradient id="SVGID_00000156545812600063488580000003580144773638797704_" gradientUnits="userSpaceOnUse" x1="292.2869" y1="-4.9881" x2="1278.9525" y2="-4.9881">
							<stop  offset="0" style="stop-color:#D7EDFD;stop-opacity:0"/>
							<stop  offset="0.9382" style="stop-color:#19ADFF"/>
						</linearGradient>
						<path style="fill:url(#SVGID_00000156545812600063488580000003580144773638797704_);" d="M1278.521,120.112
							c-101.182-48.403-213.37-73.773-312.352-96.156c-33.042-7.523-62.839-14.244-92.917-20.309
							c-11.103-2.233-21.489-4.232-31.756-6.112c-48.998-9.012-91.727-14.409-130.629-16.501
							c-13.476-0.727-27.044-1.105-40.166-1.471c-18.564-0.517-37.76-1.052-56.454-2.591
							c-57.615-4.794-110.969-19.203-158.58-42.827c-12.736-6.311-25.363-13.449-37.573-20.353
							c-13.836-7.822-28.143-15.911-42.707-22.853c-21.958-10.466-54.185-22.364-83.005-19.63l-0.095-0.995
							c29.055-2.761,61.459,9.202,83.531,19.723c14.596,6.957,28.918,15.054,42.768,22.885
							c12.199,6.897,24.813,14.028,37.525,20.328c47.498,23.567,100.729,37.942,158.218,42.726
							c18.666,1.536,37.849,2.071,56.4,2.587c13.128,0.366,26.703,0.744,40.191,1.472c38.944,2.094,81.715,7.497,130.756,16.516
							c10.271,1.881,20.664,3.881,31.773,6.115c30.09,6.068,59.893,12.79,92.941,20.315
							c99.032,22.394,211.279,47.777,312.563,96.229L1278.521,120.112z"/>
					</g>
					<g>
						
							<linearGradient id="SVGID_00000179611919603877369730000007358633122588564608_" gradientUnits="userSpaceOnUse" x1="293.2122" y1="-16.7967" x2="1279.2523" y2="-16.7967">
							<stop  offset="0" style="stop-color:#D7EDFD;stop-opacity:0"/>
							<stop  offset="0.9382" style="stop-color:#19ADFF"/>
						</linearGradient>
						<path style="fill:url(#SVGID_00000179611919603877369730000007358633122588564608_);" d="M1278.807,104.402
							c-97.481-48.492-207.693-72.258-312.224-92.444c-25.627-4.984-59.433-11.44-93.669-17.177
							c-10.907-1.823-21.655-3.546-31.947-5.124c-48.893-7.529-91.603-12.3-130.571-14.586c-11.175-0.657-22.448-1.145-33.352-1.615
							c-20.712-0.895-42.129-1.82-62.931-3.941C556.489-36.406,503.5-51.561,456.62-75.529
							c-11.707-5.978-23.326-12.667-34.563-19.137c-14.594-8.403-29.685-17.091-45.168-24.338
							c-31.139-14.573-60.802-20.58-83.518-16.915l-0.159-0.987c16.209-2.614,43.96-1.789,84.101,16.997
							c15.522,7.265,30.631,15.964,45.244,24.378c11.226,6.464,22.834,13.147,34.518,19.113
							c46.769,23.911,99.639,39.031,157.14,44.939c20.773,2.118,42.174,3.042,62.872,3.937c10.907,0.471,22.186,0.958,33.367,1.616
							c39.001,2.287,81.741,7.062,130.665,14.596c10.295,1.578,21.049,3.303,31.96,5.126c34.248,5.738,68.061,12.196,93.694,17.182
							c104.598,20.199,214.885,43.983,312.479,92.53L1278.807,104.402z"/>
					</g>
					<g>
						
							<linearGradient id="SVGID_00000005972495519953443840000017940662648108537022_" gradientUnits="userSpaceOnUse" x1="294.1395" y1="-28.7249" x2="1279.5521" y2="-28.7249">
							<stop  offset="0" style="stop-color:#D7EDFD;stop-opacity:0"/>
							<stop  offset="0.9382" style="stop-color:#19ADFF"/>
						</linearGradient>
						<path style="fill:url(#SVGID_00000005972495519953443840000017940662648108537022_);" d="M1279.093,88.691
							c-99.973-51.677-213.516-72.898-312.094-88.732c-33.864-5.478-64.749-10.072-94.421-14.045
							c-10.768-1.438-21.581-2.829-32.139-4.136c-48.418-6.021-91.109-10.166-130.514-12.669
							c-8.019-0.511-16.128-0.972-23.972-1.418c-23.714-1.349-48.235-2.744-71.974-5.633C556.344-45,503.721-60.901,457.574-85.202
							c-10.801-5.682-21.533-11.982-31.912-18.075c-15.23-8.941-30.98-18.187-47.27-25.67
							c-31.249-14.355-61.093-19.399-84.031-14.203l-0.221-0.976c23.154-5.244,53.222-0.175,84.669,14.27
							c16.336,7.505,32.107,16.763,47.359,25.717c10.369,6.087,21.091,12.381,31.872,18.052
							c46.04,24.245,98.547,40.109,156.062,47.152c23.707,2.886,48.212,4.279,71.91,5.628c7.844,0.446,15.955,0.908,23.977,1.418
							c39.426,2.505,82.137,6.651,130.574,12.675c10.561,1.307,21.376,2.699,32.148,4.137c29.681,3.974,60.575,8.569,94.447,14.049
							c98.654,15.847,212.29,37.087,312.394,88.831L1279.093,88.691z"/>
					</g>
					<g>
						
							<linearGradient id="SVGID_00000029749112974070415690000017325773429078680205_" gradientUnits="userSpaceOnUse" x1="295.0682" y1="-40.7819" x2="1279.8528" y2="-40.7819">
							<stop  offset="0" style="stop-color:#D7EDFD;stop-opacity:0"/>
							<stop  offset="0.9382" style="stop-color:#19ADFF"/>
						</linearGradient>
						<path style="fill:url(#SVGID_00000029749112974070415690000017325773429078680205_);" d="M1279.38,72.98
							c-96.657-51.882-207.06-71.524-311.966-85.021c-30.574-3.961-62.594-7.633-95.172-10.913
							c-10.433-1.047-21.31-2.107-32.33-3.148c-45.534-4.326-89.427-7.943-130.458-10.753c-3.419-0.235-6.833-0.465-10.242-0.696
							c-28.166-1.904-57.291-3.874-85.364-7.852c-57.645-8.202-109.902-24.848-155.321-49.476
							c-10-5.418-19.945-11.376-29.564-17.139c-15.765-9.444-32.065-19.211-49.07-26.875c-31.367-14.139-61.394-18.22-84.545-11.493
							l-0.279-0.96c23.381-6.793,53.653-2.694,85.236,11.541c17.058,7.689,33.384,17.47,49.173,26.93
							c9.609,5.757,19.545,11.71,29.526,17.117c45.314,24.571,97.46,41.179,154.985,49.364c28.036,3.974,55.848,5.854,85.291,7.844
							c3.41,0.23,6.824,0.461,10.243,0.696c41.04,2.81,84.941,6.428,130.483,10.755c11.022,1.041,21.901,2.101,32.336,3.148
							c32.588,3.281,64.617,6.954,95.2,10.917c105.001,13.509,215.511,33.172,312.31,85.131L1279.38,72.98z"/>
					</g>
					<g>
						
							<linearGradient id="SVGID_00000024694714759347673980000005459573377730944917_" gradientUnits="userSpaceOnUse" x1="295.9993" y1="-52.9345" x2="1280.1527" y2="-52.9345">
							<stop  offset="0" style="stop-color:#D7EDFD;stop-opacity:0"/>
							<stop  offset="0.9382" style="stop-color:#19ADFF"/>
						</linearGradient>
						<path style="fill:url(#SVGID_00000024694714759347673980000005459573377730944917_);" d="M1279.666,57.27
							c-97.729-54.442-212.479-71.654-311.836-81.31c-28.895-2.826-59.375-5.299-95.924-7.781
							c-10.782-0.73-21.624-1.445-32.522-2.16l-21.903-1.438c-35.543-2.33-72.297-4.739-108.497-7.398
							c-30.812-2.266-63.548-4.908-95.268-10.043c-57.653-9.356-109.545-26.748-154.235-51.691
							c-9.29-5.182-18.535-10.84-27.477-16.311c-16.209-9.919-32.971-20.176-50.608-27.973
							c-31.495-13.922-61.704-17.04-85.063-8.783l-0.333-0.942c23.602-8.344,54.073-5.215,85.8,8.811
							c17.698,7.824,34.488,18.098,50.726,28.034c8.933,5.466,18.17,11.119,27.442,16.291
							c44.588,24.886,96.37,42.239,153.908,51.577c31.68,5.129,64.393,7.769,95.183,10.033c36.195,2.659,72.947,5.067,108.488,7.397
							l21.904,1.438c10.898,0.714,21.74,1.43,32.524,2.16c36.559,2.483,67.048,4.956,95.952,7.784
							c65.652,6.38,115.289,14.029,160.942,24.799c57.917,13.663,107.402,32.188,151.283,56.632L1279.666,57.27z"/>
					</g>
					<g>
						
							<linearGradient id="SVGID_00000157988345227703745450000016283440533713421961_" gradientUnits="userSpaceOnUse" x1="296.932" y1="-65.1586" x2="1280.4534" y2="-65.1586">
							<stop  offset="0" style="stop-color:#D7EDFD;stop-opacity:0"/>
							<stop  offset="0.9382" style="stop-color:#19ADFF"/>
						</linearGradient>
						<path style="fill:url(#SVGID_00000157988345227703745450000016283440533713421961_);" d="M1279.953,41.559
							c-98.116-56.69-212.631-71.04-311.709-77.599c-34.449-2.292-68.201-3.636-96.674-4.649l-6.059-0.215
							c-8.853-0.313-17.739-0.628-26.654-0.957c-41.502-1.537-86.018-3.439-130.344-6.918c-38.416-3.017-67.693-6.575-94.931-11.539
							c-58.47-10.667-108.565-28.301-153.149-53.907c-8.653-4.969-17.272-10.359-25.607-15.572
							c-16.581-10.37-33.726-21.092-51.929-28.982c-42.671-18.493-71.936-11.745-85.582-6.074l-0.384-0.924
							c13.793-5.729,43.353-12.56,86.363,6.08c18.272,7.919,35.45,18.662,52.061,29.051c8.328,5.208,16.938,10.593,25.576,15.553
							c44.483,25.548,94.475,43.144,152.831,53.79c27.202,4.957,56.449,8.512,94.829,11.525
							c44.309,3.478,88.812,5.379,130.303,6.917c8.914,0.328,17.801,0.643,26.652,0.956l6.06,0.215
							c28.48,1.013,62.242,2.357,96.705,4.65c99.193,6.567,213.849,20.938,312.143,77.731L1279.953,41.559z"/>
					</g>
					<g>
						
							<linearGradient id="SVGID_00000079473054975441957650000012140060812089962922_" gradientUnits="userSpaceOnUse" x1="297.867" y1="-77.4643" x2="1280.7532" y2="-77.4643">
							<stop  offset="0" style="stop-color:#D7EDFD;stop-opacity:0"/>
							<stop  offset="0.9382" style="stop-color:#19ADFF"/>
						</linearGradient>
						<path style="fill:url(#SVGID_00000079473054975441957650000012140060812089962922_);" d="M1280.24,25.848
							c-54.158-32.439-118.583-53.555-196.955-64.555c-68.092-9.557-139.158-10.585-212.051-10.85
							c-76.142-0.276-144.663-1.26-212.189-10.529c-78.588-10.788-143.242-31.661-197.657-63.812
							c-8.082-4.776-16.138-9.927-23.928-14.909c-16.887-10.799-34.349-21.966-53.059-29.913
							c-42.853-18.202-72.339-9.922-86.103-3.367l-0.43-0.902c13.913-6.628,43.708-15.007,86.923,3.348
							c18.788,7.98,36.285,19.17,53.207,29.992c7.783,4.977,15.831,10.124,23.898,14.89
							c54.298,32.082,118.831,52.913,197.284,63.683c67.466,9.261,135.952,10.244,212.058,10.52
							c72.928,0.265,144.032,1.294,212.186,10.86c78.508,11.019,143.055,32.179,197.33,64.688L1280.24,25.848z"/>
					</g>
				</g>
			</g>
		</g>
	</g>
</g>
</svg>
